<?xml version="1.0" encoding="UTF-8"?>
<svg xmlns="http://www.w3.org/2000/svg" xmlns:xlink="http://www.w3.org/1999/xlink" width="242pt" height="67pt" viewBox="0 0 242 67" version="1.1">
<g id="surface1">
<path style=" stroke:none;fill-rule:nonzero;fill:rgb(0%,63.899231%,55.299377%);fill-opacity:1;" d="M 0.636719 39.945313 C 9.929688 35.160156 23.542969 27.425781 39.703125 16.113281 L 39.703125 12.320313 C 25.480469 21.621094 11.019531 29.09375 0.636719 34.035156 L 0.636719 39.945313 "/>
<path style=" stroke:none;fill-rule:nonzero;fill:rgb(0%,63.899231%,55.299377%);fill-opacity:1;" d="M 0.636719 28.609375 C 10.984375 24.394531 25.445313 17.878906 39.703125 9.398438 L 39.703125 7.527344 C 26.304688 14.171875 12.382813 18.332031 0.636719 20.925781 L 0.636719 28.609375 "/>
<path style=" stroke:none;fill-rule:nonzero;fill:rgb(0%,63.899231%,55.299377%);fill-opacity:1;" d="M 39.703125 39.960938 L 39.703125 20.871094 C 30.808594 28.367188 22 34.859375 14.601563 39.960938 L 39.703125 39.960938 "/>
<path style=" stroke:none;fill-rule:nonzero;fill:rgb(0%,63.899231%,55.299377%);fill-opacity:1;" d="M 9.605469 39.960938 C 16.632813 35.792969 25.160156 30.347656 33.65625 23.984375 C 35.636719 22.5 37.660156 20.96875 39.703125 19.390625 L 39.703125 17.023438 C 27.132813 26.449219 14.300781 34.304688 4.277344 39.960938 L 9.605469 39.960938 "/>
<path style=" stroke:none;fill-rule:nonzero;fill:rgb(0%,63.899231%,55.299377%);fill-opacity:1;" d="M 0.636719 18.148438 C 12.0625 16.140625 26.042969 12.523438 39.703125 6.03125 L 39.703125 3.902344 C 25.9375 10.082031 12.15625 12.703125 0.636719 13.636719 L 0.636719 18.148438 "/>
<path style=" stroke:none;fill-rule:nonzero;fill:rgb(0%,63.899231%,55.299377%);fill-opacity:1;" d="M 0.636719 0.695313 L 0.636719 11.632813 C 1.488281 11.582031 2.359375 11.519531 3.25 11.453125 C 12.746094 10.71875 25.714844 9.042969 39.703125 2.992188 L 39.703125 0.695313 L 0.636719 0.695313 "/>
<path style=" stroke:none;fill-rule:nonzero;fill:rgb(100%,100%,100%);fill-opacity:1;" d="M 0.636719 11.632813 L 0.636719 13.636719 C 12.15625 12.703125 25.9375 10.082031 39.703125 3.902344 L 39.703125 2.992188 C 25.714844 9.042969 12.746094 10.722656 3.25 11.449219 C 2.359375 11.519531 1.488281 11.582031 0.636719 11.632813 "/>
<path style=" stroke:none;fill-rule:nonzero;fill:rgb(100%,100%,100%);fill-opacity:1;" d="M 0.636719 20.925781 C 12.382813 18.332031 26.304688 14.171875 39.703125 7.527344 L 39.703125 6.03125 C 26.042969 12.523438 12.0625 16.140625 0.636719 18.148438 L 0.636719 20.925781 "/>
<path style=" stroke:none;fill-rule:nonzero;fill:rgb(100%,100%,100%);fill-opacity:1;" d="M 0.636719 34.039063 C 11.019531 29.09375 25.480469 21.625 39.703125 12.320313 L 39.703125 9.398438 C 25.445313 17.878906 10.984375 24.390625 0.636719 28.609375 L 0.636719 34.039063 "/>
<path style=" stroke:none;fill-rule:nonzero;fill:rgb(100%,100%,100%);fill-opacity:1;" d="M 9.605469 39.960938 L 14.601563 39.960938 C 22 34.859375 30.808594 28.367188 39.703125 20.871094 L 39.703125 19.390625 C 37.660156 20.96875 35.636719 22.5 33.65625 23.984375 C 25.160156 30.347656 16.632813 35.792969 9.605469 39.960938 "/>
<path style=" stroke:none;fill-rule:nonzero;fill:rgb(100%,100%,100%);fill-opacity:1;" d="M 0.636719 39.960938 L 4.277344 39.960938 C 14.300781 34.304688 27.132813 26.449219 39.703125 17.023438 L 39.703125 16.113281 C 23.542969 27.421875 9.929688 35.160156 0.636719 39.945313 L 0.636719 39.960938 "/>
<path style=" stroke:none;fill-rule:nonzero;fill:rgb(13.699341%,12.199402%,12.5%);fill-opacity:1;" d="M 52.859375 39.945313 L 58.109375 39.945313 L 58.109375 28.464844 L 66.960938 28.464844 L 66.960938 24.339844 L 58.109375 24.339844 L 58.109375 17.890625 L 67.414063 17.890625 L 67.414063 13.765625 L 52.859375 13.765625 Z M 71.011719 39.945313 L 76.039063 39.945313 L 76.039063 32.851563 C 76.039063 30.078125 76.039063 24.976563 80.125 24.976563 C 81.027344 24.976563 81.925781 25.125 82.378906 25.390625 L 82.378906 20.328125 C 81.851563 20.175781 81.328125 20.175781 80.839844 20.175781 C 77.839844 20.175781 75.777344 23.214844 75.550781 25.011719 L 75.476563 25.011719 L 75.476563 20.628906 L 71.011719 20.628906 Z M 86.128906 25.953125 C 87.816406 24.675781 89.953125 23.851563 92.089844 23.851563 C 95.050781 23.851563 96.441406 24.902344 96.441406 28.015625 L 93.664063 28.015625 C 91.566406 28.015625 89.089844 28.199219 87.175781 29.140625 C 85.261719 30.078125 83.878906 31.765625 83.878906 34.65625 C 83.878906 38.328125 87.214844 40.394531 90.628906 40.394531 C 92.914063 40.394531 95.429688 39.195313 96.589844 37.054688 L 96.667969 37.054688 C 96.707031 37.652344 96.707031 38.925781 96.890625 39.945313 L 101.316406 39.945313 C 101.203125 38.441406 101.128906 37.089844 101.089844 35.628906 C 101.050781 34.203125 101.015625 32.738281 101.015625 30.789063 L 101.015625 28.3125 C 101.015625 22.613281 98.578125 20.175781 92.691406 20.175781 C 90.550781 20.175781 87.925781 20.738281 85.976563 21.640625 Z M 88.675781 34.355469 C 88.675781 31.390625 92.011719 31.015625 94.265625 31.015625 L 96.441406 31.015625 C 96.441406 32.515625 96.214844 33.902344 95.386719 34.992188 C 94.601563 36.039063 93.402344 36.71875 91.867188 36.71875 C 90.066406 36.71875 88.675781 36.003906 88.675781 34.355469 Z M 122.960938 20.628906 L 117.929688 20.628906 L 117.929688 30.078125 C 117.929688 32.550781 117.140625 36.492188 113.503906 36.492188 C 110.277344 36.492188 110.242188 33.300781 110.242188 30.9375 L 110.242188 20.628906 L 105.214844 20.628906 L 105.214844 32.816406 C 105.214844 37.167969 107.203125 40.394531 111.78125 40.394531 C 114.402344 40.394531 116.578125 39.195313 118.117188 37.316406 L 118.195313 37.316406 L 118.195313 39.945313 L 122.960938 39.945313 Z M 128.136719 39.945313 L 133.160156 39.945313 L 133.160156 30.488281 C 133.160156 28.015625 133.949219 24.074219 137.585938 24.074219 C 140.808594 24.074219 140.847656 27.265625 140.847656 29.628906 L 140.847656 39.945313 L 145.878906 39.945313 L 145.878906 27.753906 C 145.878906 23.402344 143.886719 20.175781 139.3125 20.175781 C 136.683594 20.175781 134.546875 21.039063 132.972656 23.253906 L 132.894531 23.253906 L 132.894531 20.628906 L 128.136719 20.628906 Z M 151.046875 39.945313 L 156.074219 39.945313 L 156.074219 30.488281 C 156.074219 28.015625 156.863281 24.074219 160.5 24.074219 C 163.726563 24.074219 163.761719 27.265625 163.761719 29.628906 L 163.761719 39.945313 L 168.785156 39.945313 L 168.785156 27.753906 C 168.785156 23.402344 166.796875 20.175781 162.226563 20.175781 C 159.601563 20.175781 157.421875 21.378906 156.152344 23.253906 L 156.074219 23.253906 L 156.074219 11.8125 L 151.046875 11.8125 Z M 171.972656 30.417969 C 171.972656 35.964844 175.691406 40.394531 182.066406 40.394531 C 188.476563 40.394531 192.191406 35.964844 192.191406 30.417969 C 192.191406 24.039063 187.804688 20.175781 182.066406 20.175781 C 176.363281 20.175781 171.972656 24.039063 171.972656 30.417969 Z M 177.226563 29.8125 C 177.226563 26.925781 178.800781 24.074219 182.066406 24.074219 C 185.367188 24.074219 186.941406 26.851563 186.941406 29.8125 C 186.941406 33.039063 185.929688 36.492188 182.066406 36.492188 C 178.234375 36.492188 177.226563 33.003906 177.226563 29.8125 Z M 197.214844 39.945313 L 202.238281 39.945313 L 202.238281 24.300781 L 206.628906 24.300781 L 206.628906 20.628906 L 202.238281 20.628906 L 202.238281 18.226563 C 202.238281 16.726563 202.765625 15.261719 204.460938 15.261719 C 205.542969 15.261719 206.179688 15.675781 206.628906 15.941406 L 207.042969 11.777344 C 206.066406 11.550781 204.644531 11.363281 203.367188 11.363281 C 199.390625 11.363281 197.214844 14.0625 197.214844 17.925781 L 197.214844 20.628906 L 193.503906 20.628906 L 193.503906 24.300781 L 197.214844 24.300781 Z M 213.265625 28.390625 C 213.496094 25.800781 214.917969 23.851563 217.730469 23.851563 C 220.546875 23.851563 221.671875 25.953125 221.816406 28.390625 Z M 225.195313 34.769531 C 223.316406 35.816406 221.21875 36.71875 218.777344 36.71875 C 215.671875 36.71875 213.496094 34.957031 213.265625 31.839844 L 226.617188 31.839844 C 226.617188 25.089844 224.59375 20.175781 217.429688 20.175781 C 211.429688 20.175781 208.46875 24.789063 208.46875 30.378906 C 208.46875 36.71875 212.179688 40.394531 218.558594 40.394531 C 221.257813 40.394531 223.355469 39.867188 225.195313 38.855469 Z M 230.222656 39.945313 L 235.246094 39.945313 L 235.246094 32.851563 C 235.246094 30.078125 235.246094 24.976563 239.332031 24.976563 C 240.234375 24.976563 241.132813 25.125 241.585938 25.390625 L 241.585938 20.328125 C 241.054688 20.175781 240.53125 20.175781 240.042969 20.175781 C 237.046875 20.175781 234.984375 23.214844 234.757813 25.011719 L 234.679688 25.011719 L 234.679688 20.628906 L 230.222656 20.628906 L 230.222656 39.945313 "/>
<path style=" stroke:none;fill-rule:nonzero;fill:rgb(13.699341%,12.199402%,12.5%);fill-opacity:1;" d="M 222.238281 53.28125 L 224.777344 53.28125 L 224.777344 66.378906 L 222.238281 66.378906 L 222.238281 53.28125 "/>
<path style=" stroke:none;fill-rule:nonzero;fill:rgb(13.699341%,12.199402%,12.5%);fill-opacity:1;" d="M 228.1875 53.28125 L 230.722656 53.28125 L 230.722656 66.378906 L 228.1875 66.378906 L 228.1875 53.28125 "/>
<path style=" stroke:none;fill-rule:nonzero;fill:rgb(13.699341%,12.199402%,12.5%);fill-opacity:1;" d="M 238.035156 55.121094 C 237.816406 55.121094 237.597656 55.144531 237.382813 55.195313 C 237.152344 55.246094 236.933594 55.339844 236.726563 55.476563 C 236.535156 55.601563 236.371094 55.789063 236.238281 56.039063 C 236.105469 56.277344 236.039063 56.578125 236.039063 56.941406 C 236.039063 57.214844 236.125 57.445313 236.292969 57.636719 C 236.464844 57.824219 236.675781 57.992188 236.929688 58.140625 C 237.207031 58.292969 237.511719 58.429688 237.835938 58.554688 C 238.148438 58.691406 238.480469 58.835938 238.832031 58.984375 C 239.183594 59.121094 239.519531 59.285156 239.847656 59.472656 C 240.183594 59.675781 240.480469 59.917969 240.734375 60.203125 C 240.988281 60.480469 241.199219 60.8125 241.371094 61.199219 C 241.507813 61.574219 241.578125 62.023438 241.589844 62.539063 L 241.589844 62.683594 C 241.554688 64.078125 241.089844 65.078125 240.191406 65.683594 C 239.285156 66.296875 238.167969 66.605469 236.839844 66.605469 L 236.808594 66.605469 C 236.167969 66.601563 235.628906 66.554688 235.1875 66.453125 C 234.726563 66.367188 234.195313 66.246094 233.59375 66.097656 L 233.828125 63.734375 C 234.722656 64.257813 235.679688 64.527344 236.691406 64.539063 C 237.214844 64.539063 237.714844 64.402344 238.199219 64.125 C 238.679688 63.851563 238.929688 63.425781 238.941406 62.851563 C 238.941406 62.539063 238.867188 62.269531 238.722656 62.042969 C 238.554688 61.820313 238.34375 61.632813 238.089844 61.480469 C 237.53125 61.179688 236.898438 60.894531 236.183594 60.617188 C 235.835938 60.46875 235.503906 60.292969 235.1875 60.09375 C 234.859375 59.90625 234.558594 59.679688 234.28125 59.417969 C 234.027344 59.144531 233.816406 58.8125 233.644531 58.425781 C 233.476563 58.035156 233.390625 57.578125 233.390625 57.054688 C 233.417969 55.601563 233.882813 54.5625 234.789063 53.9375 C 235.660156 53.347656 236.667969 53.054688 237.816406 53.054688 C 238.90625 53.054688 239.914063 53.214844 240.84375 53.527344 L 240.609375 55.683594 C 239.800781 55.320313 238.941406 55.132813 238.035156 55.121094 "/>
</g>
</svg>
